<svg xmlns="http://www.w3.org/2000/svg" width="26" height="26" fill="none"><path fill="#00BCFF" d="M13.03 13a4.333 4.333 0 1 1 8.667 0 4.333 4.333 0 0 1-8.666 0Z"/><path fill="#00CF7F" d="M4.364 21.667a4.333 4.333 0 0 1 4.333-4.334l2.31-1.219 2.023 1.22v4.333a4.333 4.333 0 0 1-8.666 0Z"/><path fill="#FF7361" d="m13.03 0-2.357 4.097 2.358 4.57h4.272a4.333 4.333 0 1 0 0-8.667h-4.272Z"/><path fill="#FF4D12" d="M4.303 4.333a4.333 4.333 0 0 0 4.333 4.334l2.299.887 2.095-.887V0H8.636a4.333 4.333 0 0 0-4.333 4.333Z"/><path fill="#B659FF" d="M4.364 13a4.333 4.333 0 0 0 4.333 4.333h4.333V8.667H8.697A4.333 4.333 0 0 0 4.364 13Z"/></svg>